<?xml version="1.0" ?><svg data-name="Layer 1" id="Layer_1" viewBox="0 0 150 150" xmlns="http://www.w3.org/2000/svg"><defs><style>.cls-1{fill:#13818d;}.cls-2{fill:#fff;}.cls-3{fill:#44c2c7;}</style></defs><title/><circle class="cls-1" cx="75" cy="75" r="65"/><path class="cls-2" d="M43.72,102.56h70.44a0.92,0.92,0,0,0,.86-1V47.26a0.92,0.92,0,0,0-.86-1H43.72a0.92,0.92,0,0,0-.86,1v54.33A0.92,0.92,0,0,0,43.72,102.56Z"/><path class="cls-3" d="M109.4,71.13a1,1,0,0,1-1,1H83.51a1,1,0,0,1-1-1V53.83a1,1,0,0,1,1-1h24.86a1,1,0,0,1,1,1v17.3Z"/><rect class="cls-1" height="4.55" width="8.67" x="48.92" y="52.81"/><rect class="cls-1" height="2.57" width="29.34" x="48.92" y="69.67"/><rect class="cls-1" height="2.57" width="29.34" x="48.92" y="65.48"/><rect class="cls-1" height="3.04" width="60.49" x="48.92" y="77.51"/><rect class="cls-1" height="3.04" width="60.49" x="48.92" y="82.71"/><rect class="cls-1" height="3.04" width="60.49" x="48.92" y="87.98"/><rect class="cls-1" height="3.04" width="60.49" x="48.92" y="93.49"/><path class="cls-2" d="M42,49.48l-5,.2a0.82,0.82,0,0,0-.64.95l5,51a0.85,0.85,0,0,0,.67.88V49.48Z"/><path class="cls-2" d="M40.51,101.67L35.65,51.75,31,51.94a0.83,0.83,0,0,0-.64.95l9.36,48.58a0.83,0.83,0,0,0,.7.89h0.35A1,1,0,0,1,40.51,101.67Z"/></svg>